<?xml version="1.0" encoding="UTF-8" standalone="no"?>
<!-- Created with Inkscape (http://www.inkscape.org/) -->

<svg
   width="599.03876"
   height="599.03876"
   viewBox="0 0 158.49566 158.49566"
   version="1.1"
   id="svg1"
   inkscape:version="1.4 (e7c3feb100, 2024-10-09)"
   xml:space="preserve"
   sodipodi:docname="buymeacoffee.svg"
   xmlns:inkscape="http://www.inkscape.org/namespaces/inkscape"
   xmlns:sodipodi="http://sodipodi.sourceforge.net/DTD/sodipodi-0.dtd"
   xmlns="http://www.w3.org/2000/svg"
   xmlns:svg="http://www.w3.org/2000/svg"><sodipodi:namedview
     id="namedview1"
     pagecolor="#585858"
     bordercolor="#000000"
     borderopacity="0.25"
     inkscape:showpageshadow="false"
     inkscape:pageopacity="0.0"
     inkscape:pagecheckerboard="0"
     inkscape:deskcolor="#d1d1d1"
     inkscape:document-units="mm"
     showborder="true"
     borderlayer="true"
     inkscape:zoom="0.59524028"
     inkscape:cx="204.11925"
     inkscape:cy="393.11856"
     inkscape:window-width="1920"
     inkscape:window-height="1003"
     inkscape:window-x="1920"
     inkscape:window-y="0"
     inkscape:window-maximized="1"
     inkscape:current-layer="layer1" /><defs
     id="defs1"><inkscape:path-effect
       effect="fillet_chamfer"
       id="path-effect5"
       is_visible="true"
       lpeversion="1"
       nodesatellites_param="F,0,0,1,0,1.0019701,0,1 @ F,0,0,1,0,1.0534263,0,1 @ F,0,1,1,0,1.0019701,0,1 @ F,0,0,1,0,1.0461016,0,1 @ F,0,0,1,0,0.82864412,0,1 @ F,0,0,1,0,0,0,1"
       radius="0"
       unit="px"
       method="auto"
       mode="F"
       chamfer_steps="1"
       flexible="false"
       use_knot_distance="true"
       apply_no_radius="true"
       apply_with_radius="true"
       only_selected="false"
       hide_knots="false" /><inkscape:path-effect
       effect="fillet_chamfer"
       id="path-effect4"
       is_visible="true"
       lpeversion="1"
       nodesatellites_param="F,0,0,1,0,0,0,1 @ F,0,0,1,0,1.8294342,0,1 @ F,0,0,1,0,1.9723729,0,1 @ F,0,0,1,0,0,0,1"
       radius="2"
       unit="px"
       method="auto"
       mode="F"
       chamfer_steps="1"
       flexible="false"
       use_knot_distance="true"
       apply_no_radius="true"
       apply_with_radius="true"
       only_selected="false"
       hide_knots="false" /></defs><g
     inkscape:label="Layer 1"
     inkscape:groupmode="layer"
     id="layer1"
     transform="translate(-56.218831,-56.218831)"><rect
       style="fill:#ffffff;stroke:#000000;stroke-width:10.329;stroke-dasharray:none;paint-order:stroke markers fill"
       id="rect3"
       width="148.16667"
       height="148.16667"
       x="61.383331"
       y="61.383331"
       ry="28.225647" /><g
       id="g2"
       transform="matrix(0.96275679,0,0,0.96275679,-21.011251,-48.430841)"><path
         d="m 195.12986,159.10277 -0.079,-0.0451 -0.18948,-0.0564 c 0.0789,0.0677 0.17143,0.1015 0.27181,0.1015 z"
         fill="#0d0c22"
         id="path1-6"
         style="stroke-width:2.98404" /><path
         d="m 195.17283,159.08653 c -0.0113,-0.001 -0.0226,-0.004 -0.0338,-0.008 -9e-4,0.008 -9e-4,0.0113 0,0.0226 0.0113,-0.002 0.0226,-0.007 0.0338,-0.0113 z"
         fill="#0d0c22"
         id="path2"
         style="stroke-width:2.98404" /><path
         d="m 196.25723,167.62835 0.13759,-0.079 0.0564,-0.0338 0.0451,-0.0451 c -0.0902,0.0338 -0.16805,0.0902 -0.23572,0.15677 z"
         fill="#0d0c22"
         id="path3"
         style="stroke-width:2.98404" /><path
         d="m 195.38801,159.27996 -0.13533,-0.12858 -0.0902,-0.0451 c 0.0451,0.0902 0.13083,0.15113 0.22669,0.1782 z"
         fill="#0d0c22"
         id="path4-1"
         style="stroke-width:2.98404" /><path
         d="m 161.4461,242.0371 c -0.11278,0.0451 -0.20188,0.11955 -0.27519,0.21203 l 0.0902,-0.0564 c 0.0564,-0.0564 0.13985,-0.11616 0.18947,-0.15677 z"
         fill="#0d0c22"
         id="path5-8"
         style="stroke-width:2.98404" /><path
         d="m 181.15113,238.17283 c 0,-0.1218 -0.0564,-0.1015 -0.0451,0.33384 0,-0.0338 0.0113,-0.0677 0.0226,-0.10151 0.008,-0.0789 0.0113,-0.15338 0.0225,-0.23007 z"
         fill="#0d0c22"
         id="path6-7"
         style="stroke-width:2.98404" /><path
         d="m 179.11755,242.0371 c -0.11278,0.0451 -0.20301,0.11955 -0.27519,0.21203 l 0.0902,-0.0564 c 0.0564,-0.0564 0.13985,-0.11616 0.18947,-0.15677 z"
         fill="#0d0c22"
         id="path7"
         style="stroke-width:2.98404" /><path
         d="m 147.56606,242.9529 c -0.0789,-0.0677 -0.18158,-0.1173 -0.28872,-0.13534 0.0902,0.0451 0.17368,0.0789 0.2312,0.11503 z"
         fill="#0d0c22"
         id="path8"
         style="stroke-width:2.98404" /><path
         d="m 144.43037,239.96055 c -0.0113,-0.12632 -0.0564,-0.24812 -0.11391,-0.35978 0.0451,0.11504 0.0789,0.23346 0.11278,0.35414 z"
         fill="#0d0c22"
         id="path9"
         style="stroke-width:2.98404" /><path
         d="m 165.41097,186.48954 c -4.2872,1.83554 -9.15264,3.9166 -15.45866,3.9166 -2.63798,-0.005 -5.26311,-0.36654 -7.8041,-1.07594 l 4.3613,44.77705 c 0.15452,1.87162 1.00715,3.61659 2.3884,4.88878 1.38159,1.27174 3.19084,1.97776 5.0689,1.97753 0,0 6.18387,0.32143 8.247,0.32143 2.22103,0 8.88027,-0.32143 8.88027,-0.32143 1.8775,0 3.68642,-0.70602 5.06744,-1.9782 1.38136,-1.27208 2.23354,-3.01683 2.38817,-4.88811 l 4.67123,-49.48043 c -2.08772,-0.71278 -4.19439,-1.18681 -6.56936,-1.18681 -4.10754,-0.001 -7.41715,1.41328 -11.24059,3.04942 z"
         fill="#ffdd00"
         id="path10"
         style="stroke-width:2.98404" /><path
         d="m 128.65005,167.37763 0.079,0.0677 0.0451,0.0338 c -0.0338,-0.0338 -0.079,-0.0677 -0.12181,-0.10151 z"
         fill="#0d0c22"
         id="path11"
         style="stroke-width:2.98404" /><path
         d="m 203.39152,163.23885 -0.6564,-3.31265 c -0.58985,-2.97227 -1.927,-5.78078 -4.97788,-6.85504 -0.97783,-0.34399 -2.08772,-0.49173 -2.83761,-1.20271 -0.75001,-0.71166 -0.97106,-1.81614 -1.14463,-2.84066 -0.32143,-1.88042 -0.62369,-3.76231 -0.95301,-5.63946 -0.28422,-1.61381 -0.50865,-3.42679 -1.24907,-4.90729 -0.96316,-1.98801 -2.96257,-3.15058 -4.95048,-3.91975 -1.01843,-0.38008 -2.05839,-0.70151 -3.11393,-0.96317 -4.9666,-1.31031 -10.18832,-1.79211 -15.29794,-2.06663 -6.13311,-0.33834 -12.28225,-0.23684 -18.4007,0.30452 -4.55405,0.41391 -9.35046,0.91579 -13.67805,2.49058 -1.58166,0.57631 -3.21148,1.26857 -4.41431,2.49057 -1.47564,1.50136 -1.95734,3.82333 -0.8797,5.69564 0.76579,1.32959 2.06347,2.26896 3.43953,2.89039 1.79257,0.80075 3.66453,1.41001 5.58499,1.81771 5.34725,1.18185 10.88555,1.64595 16.3484,1.84344 6.05462,0.24473 12.11939,0.0451 18.14514,-0.59211 1.4902,-0.16354 2.97768,-0.35978 4.46258,-0.58986 1.74869,-0.26842 2.87099,-2.55475 2.35558,-4.14769 -0.61692,-1.90444 -2.27381,-2.64306 -4.14781,-2.35569 -0.27632,0.0451 -0.55038,0.079 -0.82669,0.12406 l -0.19963,0.0338 c -0.63497,0.0789 -1.26971,0.15564 -1.90445,0.22444 -1.31143,0.14097 -2.62591,0.25714 -3.944,0.34737 -2.95118,0.20526 -5.91082,0.3 -8.86855,0.30564 -2.9064,0 -5.81439,-0.079 -8.71459,-0.27294 -1.32317,-0.0902 -2.64306,-0.19737 -3.9598,-0.33045 -0.59888,-0.0677 -1.19628,-0.12857 -1.79369,-0.20188 l -0.56843,-0.0677 -0.12406,-0.0226 -0.58985,-0.0902 c -1.20441,-0.18158 -2.4087,-0.39023 -3.60025,-0.64286 -0.12067,-0.0226 -0.22782,-0.0902 -0.30451,-0.18948 -0.079,-0.1015 -0.11955,-0.21541 -0.11955,-0.33835 0,-0.12293 0.0451,-0.24248 0.11955,-0.33834 0.0789,-0.10151 0.18496,-0.16241 0.30451,-0.18948 h 0.0226 c 1.03196,-0.21992 2.07306,-0.40827 3.11675,-0.57181 0.34849,-0.0564 0.69699,-0.11278 1.04662,-0.16015 h 0.01 c 0.65414,-0.0451 1.31031,-0.16015 1.96061,-0.23797 5.65808,-0.58872 11.3501,-0.78948 17.03558,-0.60113 2.76058,0.0789 5.51902,0.24248 8.26674,0.52218 0.59098,0.0564 1.17869,0.12519 1.76629,0.19737 0.22443,0.0226 0.45113,0.0564 0.67782,0.0902 l 0.45564,0.0677 c 1.32971,0.1985 2.6522,0.43872 3.96792,0.72068 1.94944,0.42406 4.45277,0.56166 5.31995,2.69776 0.27632,0.67782 0.40151,1.43065 0.55376,2.14208 l 0.19399,0.90677 c 0.005,0.0113 0.009,0.0338 0.0111,0.0451 0.45903,2.14095 0.91918,4.28202 1.37956,6.42308 0.0338,0.1579 0.0338,0.32143 0.002,0.48046 -0.0338,0.15902 -0.10151,0.30902 -0.18948,0.44098 -0.0902,0.13195 -0.21203,0.24473 -0.34962,0.32932 -0.1376,0.079 -0.29211,0.13872 -0.45226,0.16128 h -0.0113 l -0.28083,0.0338 -0.27744,0.0338 c -0.87971,0.11504 -1.76088,0.22218 -2.64295,0.32143 -1.73764,0.1985 -3.47765,0.3688 -5.22037,0.51429 -3.46321,0.28759 -6.93342,0.47707 -10.41039,0.5673 -1.77159,0.0451 -3.54295,0.0677 -5.31341,0.0677 -7.04767,-0.006 -14.08948,-0.41503 -21.09035,-1.22673 -0.75789,-0.0902 -1.51579,-0.18609 -2.27369,-0.28421 0.58759,0.0789 -0.42745,-0.0564 -0.63271,-0.0902 -0.48158,-0.0677 -0.96317,-0.13759 -1.4452,-0.2109 -1.61708,-0.24249 -3.22445,-0.54136 -4.83826,-0.80301 -1.95102,-0.32143 -3.8169,-0.16016 -5.58161,0.80301 -1.44858,0.79286 -2.62107,2.0082 -3.36092,3.48453 -0.76128,1.57365 -0.98797,3.28693 -1.32801,4.97799 -0.34061,1.69073 -0.87068,3.51014 -0.66993,5.24597 0.43196,3.74619 3.05099,6.79076 6.81816,7.47174 3.54396,0.64173 7.10722,1.16256 10.68005,1.60568 14.03478,1.71881 28.21403,1.92441 42.29279,0.61354 1.14666,-0.11278 2.29141,-0.22331 3.43491,-0.35075 0.35752,-0.0338 0.71842,0.002 1.0579,0.12067 0.33948,0.11842 0.64737,0.31128 0.90226,0.56504 0.25489,0.25264 0.45,0.5594 0.57068,0.89775 0.12068,0.33835 0.16466,0.69925 0.12857,1.05678 l -0.35639,3.46547 c -0.71843,7.00233 -1.43685,14.00376 -2.15516,21.00519 -0.74888,7.35207 -1.50362,14.7038 -2.26242,22.0553 -0.21429,2.07035 -0.42858,4.14003 -0.64286,6.20948 -0.20527,2.03786 -0.23459,4.13979 -0.62143,6.15341 -0.61016,3.16637 -2.75404,5.11108 -5.88218,5.82252 -2.86558,0.65188 -5.79319,0.99474 -8.73219,1.02068 -3.25795,0.0225 -6.51443,-0.12632 -9.77272,-0.11278 -3.47788,0.0225 -7.73813,-0.30113 -10.42303,-2.89028 -2.35885,-2.27393 -2.6849,-5.8338 -3.00599,-8.9122 -0.42858,-4.07528 -0.85264,-8.15023 -1.27343,-12.22472 l -2.36043,-22.65565 -1.52707,-14.65915 c -0.0226,-0.24248 -0.0564,-0.48158 -0.0789,-0.72632 -0.18271,-1.74869 -1.42106,-3.46028 -3.37209,-3.37197 -1.66997,0.079 -3.56799,1.49324 -3.37208,3.37197 l 1.13199,10.86785 2.34126,22.48083 c 0.66654,6.38587 1.3323,12.77263 1.99602,19.1603 0.12858,1.22369 0.24925,2.45042 0.38346,3.67389 0.73422,6.68665 5.84022,10.28983 12.16383,11.30476 3.69329,0.59436 7.47647,0.71617 11.22435,0.77707 4.80431,0.0789 9.65701,0.26166 14.38282,-0.6079 7.0029,-1.2847 12.25699,-5.96067 13.00676,-13.21394 0.21429,-2.09392 0.42858,-4.18841 0.64286,-6.28346 0.71166,-6.92834 1.42276,-13.85736 2.13238,-20.78684 l 2.32186,-22.64144 1.06467,-10.37633 c 0.0564,-0.51429 0.27068,-0.99813 0.6203,-1.3799 0.34963,-0.3812 0.81204,-0.6406 1.32012,-0.7376 2.00234,-0.39022 3.91626,-1.05677 5.34059,-2.58069 2.2675,-2.42629 2.71874,-5.58962 1.91753,-8.77866 z m -75.32545,2.23862 c 0.0338,-0.0113 -0.0226,0.24699 -0.0451,0.3688 -0.005,-0.18496 0.005,-0.3485 0.0451,-0.3688 z m 0.19398,1.50305 c 0.0113,-0.0113 0.0677,0.0564 0.11391,0.1297 -0.0789,-0.0677 -0.1218,-0.12406 -0.11391,-0.1297 z m 0.19173,0.25151 c 0.10151,0.19173 0.0677,0.11729 0,0 z m 0.38346,0.31128 h 0.01 c 0,0.0113 0.0226,0.0226 0.0226,0.0338 -0.0107,-0.0113 -0.0226,-0.0226 -0.0338,-0.0338 z m 67.20477,-0.46579 c -0.71955,0.68346 -1.80328,1.00151 -2.87426,1.16076 -12.01101,1.78264 -24.1975,2.68501 -36.34013,2.28666 -8.69057,-0.29662 -17.28957,-1.26192 -25.8933,-2.47761 -0.84248,-0.11842 -1.7567,-0.27293 -2.3364,-0.89436 -1.09174,-1.17238 -0.55602,-3.5328 -0.27181,-4.94901 0.26053,-1.29757 0.7579,-3.02698 2.30111,-3.2116 2.40858,-0.28308 5.20593,0.73421 7.58891,1.09512 2.86896,0.43759 5.74864,0.78835 8.63903,1.05226 12.3356,1.12444 24.87837,0.9485 37.15927,-0.69474 2.23828,-0.30113 4.46889,-0.65076 6.69139,-1.04888 1.97989,-0.35526 4.17498,-1.02181 5.37127,1.02971 0.82105,1.39703 0.92932,3.26618 0.80301,4.8448 -0.0338,0.68797 -0.33722,1.33444 -0.83798,1.80801 z"
         fill="#0d0c22"
         id="path12"
         style="stroke-width:2.98404" /></g></g></svg>
