<?xml version="1.0" encoding="UTF-8" standalone="no"?>
<!-- Created with Inkscape (http://www.inkscape.org/) -->

<svg
   width="599.03876"
   height="599.03876"
   viewBox="0 0 158.49566 158.49566"
   version="1.1"
   id="svg1"
   inkscape:version="1.4 (e7c3feb100, 2024-10-09)"
   xml:space="preserve"
   sodipodi:docname="discord-links.svg"
   xmlns:inkscape="http://www.inkscape.org/namespaces/inkscape"
   xmlns:sodipodi="http://sodipodi.sourceforge.net/DTD/sodipodi-0.dtd"
   xmlns="http://www.w3.org/2000/svg"
   xmlns:svg="http://www.w3.org/2000/svg"><sodipodi:namedview
     id="namedview1"
     pagecolor="#585858"
     bordercolor="#000000"
     borderopacity="0.25"
     inkscape:showpageshadow="false"
     inkscape:pageopacity="0.0"
     inkscape:pagecheckerboard="0"
     inkscape:deskcolor="#d1d1d1"
     inkscape:document-units="mm"
     showborder="true"
     borderlayer="true"
     inkscape:zoom="0.84179687"
     inkscape:cx="340.34339"
     inkscape:cy="435.97216"
     inkscape:window-width="1920"
     inkscape:window-height="1043"
     inkscape:window-x="3840"
     inkscape:window-y="0"
     inkscape:window-maximized="1"
     inkscape:current-layer="layer1" /><defs
     id="defs1" /><g
     inkscape:label="Layer 1"
     inkscape:groupmode="layer"
     id="layer1"
     transform="translate(-56.218831,-56.218831)"><rect
       style="fill:#ffffff;stroke:#000000;stroke-width:10.329;stroke-dasharray:none;paint-order:stroke markers fill"
       id="rect3"
       width="148.16667"
       height="148.16667"
       x="61.383331"
       y="61.383331"
       ry="28.225647" /><path
       style="fill:#000000"
       id="path6" /><path
       style="fill:#000000"
       id="path5" /><path
       style="fill:#496bf1;stroke:none;stroke-width:0.556935"
       d="m 133.57498,81.875272 c -3.87278,0.508505 -7.66088,0.65542 -11.49374,1.613636 -10.2334,2.558354 -19.58674,8.348432 -26.646369,16.153866 -4.329522,4.786906 -7.660153,10.374836 -10.045199,16.356476 -9.669746,24.25153 0.497995,52.70172 22.840128,65.94871 10.49289,6.22139 22.90458,8.38388 34.92329,6.80349 27.43824,-3.60797 47.67908,-29.24074 45.94132,-56.60561 -1.46252,-23.0305 -18.07412,-43.089785 -40.48915,-48.693546 -4.66353,-1.165885 -10.21681,-2.20904 -15.03028,-1.577022 m 18.71416,80.246298 c -1.11136,-1.95095 -3.13245,-3.92212 -3.53653,-6.18893 l 5.74687,-2.65241 c -0.39294,-0.36159 -0.90298,-0.95948 -1.47355,-0.99863 -0.72892,-0.05 -1.68865,0.61998 -2.3577,0.87914 -1.58195,0.61276 -3.22114,1.11646 -4.86274,1.53847 -6.0628,1.55858 -12.43267,1.67231 -18.56681,0.43775 -2.10445,-0.42354 -4.17012,-1.08975 -6.18894,-1.81136 -0.79556,-0.28437 -1.95732,-1.08115 -2.79975,-1.04718 -0.51453,0.0208 -1.00699,0.50997 -1.47356,0.7071 v 0.29471 l 5.74687,2.65241 c -0.47779,1.65854 -1.65413,3.29476 -2.61488,4.71538 -0.28984,0.42857 -0.67985,1.21576 -1.23012,1.33666 -1.30966,0.28774 -3.79285,-1.19951 -4.99634,-1.68981 -3.08102,-1.25523 -6.00006,-2.81375 -8.84134,-4.5395 -1.03842,-0.63071 -2.74725,-1.43581 -3.39827,-2.48889 -0.48502,-0.78455 -0.42163,-2.32214 -0.43241,-3.22807 -0.11719,-9.85103 1.41002,-19.39665 5.85728,-28.29229 1.23832,-2.47695 2.60167,-5.99089 4.65239,-7.89921 0.92607,-0.86176 2.61449,-1.25056 3.78326,-1.6863 3.05929,-1.14054 6.71851,-2.61997 10.01791,-2.74154 1.67795,-0.0618 1.31202,3.11393 2.67423,3.50209 1.42742,0.40674 3.93031,-0.34238 5.43261,-0.44526 3.04391,-0.20845 6.11445,0.15163 9.13593,0.43559 2.09002,0.19642 1.33378,-3.08976 2.97861,-3.4906 0.97257,-0.23701 2.54562,0.41254 3.50516,0.63275 2.56578,0.58881 5.05547,1.41811 7.51514,2.34666 0.98962,0.37359 2.35821,0.7238 3.14165,1.46207 1.86418,1.75671 3.12997,4.88188 4.26251,7.14697 3.60748,7.21497 5.61257,14.80711 6.16575,22.84013 0.15314,2.22397 0.15244,4.40704 0,6.63101 -0.0563,0.82132 0.10893,2.03415 -0.31199,2.77258 -0.70192,1.23137 -2.94179,2.18058 -4.12187,2.91175 -4.06799,2.52053 -8.71608,4.88082 -13.40937,5.95676 m -28.8817,-30.73263 c -8.02069,1.25942 -6.69303,15.15487 1.47355,13.86939 7.94769,-1.25102 6.66755,-15.14771 -1.47355,-13.86939 m 23.13483,-0.002 c -8.01341,1.13769 -6.99755,14.95505 1.17885,13.89304 8.01996,-1.0417 6.95201,-15.0474 -1.17885,-13.89304 z"
       id="path7" /></g></svg>
