<?xml version="1.0" encoding="UTF-8" standalone="no"?>
<!-- Created with Inkscape (http://www.inkscape.org/) -->

<svg
   width="1024"
   height="1024"
   viewBox="0 0 270.93333 270.93333"
   version="1.1"
   id="svg1"
   inkscape:version="1.4 (e7c3feb100, 2024-10-09)"
   xml:space="preserve"
   sodipodi:docname="game_icon.svg"
   xmlns:inkscape="http://www.inkscape.org/namespaces/inkscape"
   xmlns:sodipodi="http://sodipodi.sourceforge.net/DTD/sodipodi-0.dtd"
   xmlns="http://www.w3.org/2000/svg"
   xmlns:svg="http://www.w3.org/2000/svg"><sodipodi:namedview
     id="namedview1"
     pagecolor="#585858"
     bordercolor="#000000"
     borderopacity="0.25"
     inkscape:showpageshadow="false"
     inkscape:pageopacity="0.0"
     inkscape:pagecheckerboard="0"
     inkscape:deskcolor="#d1d1d1"
     inkscape:document-units="mm"
     showborder="true"
     borderlayer="true"
     inkscape:zoom="0.28380946"
     inkscape:cx="266.02355"
     inkscape:cy="754.02701"
     inkscape:window-width="1920"
     inkscape:window-height="1003"
     inkscape:window-x="1920"
     inkscape:window-y="0"
     inkscape:window-maximized="1"
     inkscape:current-layer="layer1" /><defs
     id="defs1"><inkscape:path-effect
       effect="fillet_chamfer"
       id="path-effect1"
       is_visible="true"
       lpeversion="1"
       nodesatellites_param="F,0,0,1,0,0,0,1 @ F,0,0,1,0,0,0,1 @ F,0,0,1,0,0,0,1 @ F,0,0,1,0,0,0,1 @ F,0,0,1,0,0,0,1 @ F,0,0,1,0,0,0,1 @ F,0,0,1,0,0,0,1 @ F,0,0,1,0,9.6720501,0,1 @ F,0,1,1,0,9.6720501,0,1 @ F,0,0,1,0,0,0,1"
       radius="0"
       unit="px"
       method="auto"
       mode="F"
       chamfer_steps="1"
       flexible="false"
       use_knot_distance="true"
       apply_no_radius="true"
       apply_with_radius="true"
       only_selected="false"
       hide_knots="false" /></defs><g
     inkscape:label="Layer 1"
     inkscape:groupmode="layer"
     id="layer1"><g
       id="g9"
       transform="matrix(0.98390515,0,0,0.98390515,2.180787,2.2257631)"><path
         style="opacity:1;fill:#2d4a60;fill-opacity:1;stroke:#ffffff;stroke-width:14.996;stroke-linecap:round;stroke-linejoin:round;stroke-dasharray:none;paint-order:stroke markers fill"
         d="M 5.7680452,194.30073 C 8.4685792,176.09639 14.00811,135.30186 18.457745,105.30803 22.90738,75.314193 49.605191,45.155556 88.663096,45.155556 h 93.771934 c 41.69473,0 65.09652,32.465853 69.71095,59.493264 4.61444,27.02742 10.39044,75.73276 13.18411,94.43114 4.50628,30.16109 -36.84722,43.91353 -53.72523,19.77616 l -26.30002,-36.33198 a 18.854835,18.854835 26.943279 0 0 -15.34341,-7.79874 l -69.15433,0.25756 a 19.071356,19.071356 152.89474 0 0 -15.357462,7.86059 l -27.604384,37.99018 c -15.686769,21.58872 -57.35085011,9.01668 -52.0772088,-26.533 z"
         id="path1"
         sodipodi:nodetypes="sssssssccss"
         inkscape:path-effect="#path-effect1"
         inkscape:original-d="M 5.7680452,194.30073 C 8.4685792,176.09639 14.00811,135.30186 18.457745,105.30803 22.90738,75.314193 49.605191,45.155556 88.663096,45.155556 h 93.771934 c 41.69473,0 65.09652,32.465853 69.71095,59.493264 4.61444,27.02742 10.39044,75.73276 13.18411,94.43114 4.50628,30.16109 -36.84722,43.91353 -53.72523,19.77616 l -31.97145,-44.16674 -88.498293,0.3296 -33.289863,45.81475 c -15.686769,21.58872 -57.35085011,9.01668 -52.0772088,-26.533 z" /><path
         id="path5"
         style="opacity:1;fill:#263f52;fill-opacity:1;stroke:none;stroke-width:2.90485;stroke-linejoin:round;paint-order:stroke markers fill"
         d="m 81.741264,79.434433 c -8.216993,0 -14.83217,6.615177 -14.83217,14.83217 v 6.733437 h -6.733439 c -8.216993,0 -14.831653,6.61522 -14.831653,14.83222 0,8.21699 6.61466,14.83217 14.831653,14.83217 h 6.733439 v 6.73344 c 0,8.21699 6.615177,14.83217 14.83217,14.83217 8.216993,0 14.832169,-6.61518 14.832169,-14.83217 v -6.73344 h 6.733437 c 8.217,0 14.83217,-6.61518 14.83217,-14.83217 0,-8.217 -6.61517,-14.83222 -14.83217,-14.83222 h -6.733437 v -6.733437 c 0,-8.216993 -6.615176,-14.83217 -14.832169,-14.83217 z" /><path
         id="rect1"
         style="opacity:1;fill:#ffffff;stroke:none;stroke-width:2.90485;stroke-linejoin:round;paint-order:stroke markers fill"
         d="m 81.741264,70.967761 c -8.216993,0 -14.83217,6.615177 -14.83217,14.83217 v 6.733439 h -6.733439 c -8.216993,0 -14.831653,6.615177 -14.831653,14.83217 0,8.21699 6.61466,14.83217 14.831653,14.83217 h 6.733439 v 6.73344 c 0,8.21699 6.615177,14.83217 14.83217,14.83217 8.216993,0 14.832169,-6.61518 14.832169,-14.83217 v -6.73344 h 6.733437 c 8.217,0 14.83217,-6.61518 14.83217,-14.83217 0,-8.216993 -6.61517,-14.83217 -14.83217,-14.83217 h -6.733437 v -6.733439 c 0,-8.216993 -6.615176,-14.83217 -14.832169,-14.83217 z" /><circle
         style="opacity:1;fill:#263f52;fill-opacity:1;stroke:none;stroke-width:2.99641;stroke-linejoin:round;paint-order:stroke markers fill"
         id="circle6"
         cx="163.72762"
         cy="115.32658"
         r="14.799579" /><circle
         style="opacity:1;fill:#fd3730;fill-opacity:1;stroke:none;stroke-width:2.99641;stroke-linejoin:round;paint-order:stroke markers fill"
         id="path2"
         cx="163.72762"
         cy="106.85995"
         r="14.799579" /><circle
         style="opacity:1;fill:#263f52;fill-opacity:1;stroke:none;stroke-width:2.99641;stroke-linejoin:round;paint-order:stroke markers fill"
         id="circle7"
         cx="215.00174"
         cy="115.32658"
         r="14.799579" /><circle
         style="opacity:1;fill:#00cf66;fill-opacity:1;stroke:none;stroke-width:2.99641;stroke-linejoin:round;paint-order:stroke markers fill"
         id="circle3"
         cx="215.00174"
         cy="106.85995"
         r="14.799579" /><circle
         style="opacity:1;fill:#263f52;fill-opacity:1;stroke:none;stroke-width:2.99641;stroke-linejoin:round;paint-order:stroke markers fill"
         id="circle8"
         cx="89.68956"
         cy="-189.36469"
         r="14.799579"
         transform="rotate(90)" /><circle
         style="opacity:1;fill:#fac100;fill-opacity:1;stroke:none;stroke-width:2.99641;stroke-linejoin:round;paint-order:stroke markers fill"
         id="circle4"
         cx="81.222885"
         cy="-189.36469"
         r="14.799579"
         transform="rotate(90)" /><circle
         style="opacity:1;fill:#263f52;fill-opacity:1;stroke:none;stroke-width:2.99641;stroke-linejoin:round;paint-order:stroke markers fill"
         id="circle9"
         cx="140.96356"
         cy="-189.36469"
         r="14.799579"
         transform="rotate(90)" /><circle
         style="opacity:1;fill:#009ae0;fill-opacity:1;stroke:none;stroke-width:2.99641;stroke-linejoin:round;paint-order:stroke markers fill"
         id="circle5"
         cx="132.49701"
         cy="-189.36469"
         r="14.799579"
         transform="rotate(90)" /></g></g></svg>
