<?xml version="1.0" encoding="UTF-8" standalone="no"?>
<!-- Created with Inkscape (http://www.inkscape.org/) -->

<svg
   width="599.03876"
   height="599.03876"
   viewBox="0 0 158.49566 158.49566"
   version="1.1"
   id="svg1"
   inkscape:version="1.4 (e7c3feb100, 2024-10-09)"
   xml:space="preserve"
   sodipodi:docname="instagram-links.svg"
   xmlns:inkscape="http://www.inkscape.org/namespaces/inkscape"
   xmlns:sodipodi="http://sodipodi.sourceforge.net/DTD/sodipodi-0.dtd"
   xmlns:xlink="http://www.w3.org/1999/xlink"
   xmlns="http://www.w3.org/2000/svg"
   xmlns:svg="http://www.w3.org/2000/svg"><sodipodi:namedview
     id="namedview1"
     pagecolor="#585858"
     bordercolor="#000000"
     borderopacity="0.25"
     inkscape:showpageshadow="false"
     inkscape:pageopacity="0.0"
     inkscape:pagecheckerboard="0"
     inkscape:deskcolor="#d1d1d1"
     inkscape:document-units="mm"
     showborder="true"
     borderlayer="true"
     inkscape:zoom="1"
     inkscape:cx="248.5"
     inkscape:cy="411"
     inkscape:window-width="1920"
     inkscape:window-height="1003"
     inkscape:window-x="1920"
     inkscape:window-y="0"
     inkscape:window-maximized="1"
     inkscape:current-layer="layer1"
     showgrid="false"
     showguides="false" /><defs
     id="defs1"><linearGradient
       id="linearGradient22"
       inkscape:collect="always"><stop
         style="stop-color:#b53393;stop-opacity:1"
         offset="0"
         id="stop22" /><stop
         style="stop-color:#fa8f21;stop-opacity:1"
         offset="1"
         id="stop23" /></linearGradient><inkscape:path-effect
       effect="fillet_chamfer"
       id="path-effect20"
       is_visible="true"
       lpeversion="1"
       nodesatellites_param="F,0,0,1,0,0,0,1 @ F,0,0,1,0,4.4979163,0,1 @ F,0,0,1,0,4.4979163,0,1 @ F,0,0,1,0,4.4979163,0,1 @ F,0,0,1,0,4.4979163,0,1 @ F,0,0,1,0,0,0,1"
       radius="17"
       unit="px"
       method="auto"
       mode="F"
       chamfer_steps="1"
       flexible="false"
       use_knot_distance="true"
       apply_no_radius="true"
       apply_with_radius="true"
       only_selected="false"
       hide_knots="false" /><inkscape:path-effect
       effect="fillet_chamfer"
       id="path-effect16"
       is_visible="true"
       lpeversion="1"
       nodesatellites_param="F,0,0,1,0,0,0,1 @ F,0,0,1,0,4.4979163,0,1 @ F,0,0,1,0,4.4979163,0,1 @ F,0,0,1,0,4.4979163,0,1 @ F,0,0,1,0,4.4979163,0,1 @ F,0,0,1,0,0,0,1"
       radius="17"
       unit="px"
       method="auto"
       mode="F"
       chamfer_steps="1"
       flexible="false"
       use_knot_distance="true"
       apply_no_radius="true"
       apply_with_radius="true"
       only_selected="false"
       hide_knots="false" /><inkscape:path-effect
       effect="fillet_chamfer"
       id="path-effect12"
       is_visible="true"
       lpeversion="1"
       nodesatellites_param="F,0,0,1,0,0,0,1 @ F,0,0,1,0,4.4979163,0,1 @ F,0,0,1,0,4.4979163,0,1 @ F,0,0,1,0,4.4979163,0,1 @ F,0,0,1,0,4.4979163,0,1 @ F,0,0,1,0,0,0,1"
       radius="17"
       unit="px"
       method="auto"
       mode="F"
       chamfer_steps="1"
       flexible="false"
       use_knot_distance="true"
       apply_no_radius="true"
       apply_with_radius="true"
       only_selected="false"
       hide_knots="false" /><inkscape:path-effect
       effect="fillet_chamfer"
       id="path-effect4"
       is_visible="true"
       lpeversion="1"
       nodesatellites_param="F,0,0,1,0,2.6262923,0,1 @ F,0,0,1,0,2.6262923,0,1 @ F,0,0,1,0,2.6262923,0,1 @ F,0,0,1,0,2.6262923,0,1"
       radius="10"
       unit="px"
       method="auto"
       mode="F"
       chamfer_steps="1"
       flexible="false"
       use_knot_distance="true"
       apply_no_radius="true"
       apply_with_radius="true"
       only_selected="false"
       hide_knots="false" /><inkscape:path-effect
       effect="fillet_chamfer"
       id="path-effect2"
       is_visible="true"
       lpeversion="1"
       nodesatellites_param="F,0,0,1,0,2.6262923,0,1 @ F,0,0,1,0,2.6262923,0,1 @ F,0,0,1,0,2.6262923,0,1 @ F,0,0,1,0,2.6262923,0,1"
       radius="10"
       unit="px"
       method="auto"
       mode="F"
       chamfer_steps="1"
       flexible="false"
       use_knot_distance="true"
       apply_no_radius="true"
       apply_with_radius="true"
       only_selected="false"
       hide_knots="false" /><inkscape:path-effect
       effect="fillet_chamfer"
       id="path-effect1"
       is_visible="true"
       lpeversion="1"
       nodesatellites_param="F,0,0,1,0,0,0,1 @ F,0,0,1,0,4.4979163,0,1 @ F,0,0,1,0,4.4979163,0,1 @ F,0,0,1,0,4.4979163,0,1 @ F,0,0,1,0,4.4979163,0,1 @ F,0,0,1,0,4.4979163,0,1"
       radius="17"
       unit="px"
       method="auto"
       mode="F"
       chamfer_steps="1"
       flexible="false"
       use_knot_distance="true"
       apply_no_radius="true"
       apply_with_radius="true"
       only_selected="false"
       hide_knots="false" /><linearGradient
       inkscape:collect="always"
       xlink:href="#linearGradient22"
       id="linearGradient26"
       x1="159.36856"
       y1="115.7123"
       x2="87.686768"
       y2="187.39409"
       gradientUnits="userSpaceOnUse"
       gradientTransform="matrix(0.90973872,0,0,0.90973872,12.227399,12.227399)" /></defs><g
     inkscape:label="Layer 1"
     inkscape:groupmode="layer"
     id="layer1"
     transform="translate(-56.218831,-56.218831)"><rect
       style="fill:#ffffff;stroke:#000000;stroke-width:10.329;stroke-dasharray:none;paint-order:stroke markers fill"
       id="rect3"
       width="148.16667"
       height="148.16667"
       x="61.383331"
       y="61.383331"
       ry="28.225647" /><path
       id="rect23"
       style="opacity:1;fill:url(#linearGradient26);fill-opacity:1;stroke:none;stroke-width:3.37488;stroke-linecap:round;stroke-linejoin:round;stroke-dasharray:none;paint-order:stroke markers fill"
       d="m 110.87799,84.798998 c -14.447799,0 -26.078992,11.631193 -26.078992,26.078992 v 49.17743 c 0,14.44781 11.631193,26.079 26.078992,26.079 h 49.17743 c 14.44781,0 26.079,-11.63119 26.079,-26.079 v -49.17743 c 0,-14.447799 -11.63119,-26.078992 -26.079,-26.078992 z m 17.26424,10.195504 c 2.95173,-0.01512 6.44469,-0.0039 10.61109,0.02868 16.63808,0.130133 17.82458,0.216755 21.95228,1.60311 3.43969,1.155276 6.44082,3.09275 8.90408,5.748158 3.48711,3.75914 5.28843,8.34055 5.95125,15.13695 0.34547,3.54215 0.33253,32.67883 -0.016,36.23124 -1.25664,12.80833 -7.87159,19.96353 -20.16347,21.80936 -3.56092,0.53474 -36.88203,0.51994 -40.36408,-0.0179 -10.60938,-1.63878 -17.256163,-8.02026 -19.32994,-18.55754 -0.385256,-1.95764 -0.45274,-4.41658 -0.537818,-19.62753 -0.101482,-18.14515 0.02213,-21.3575 0.964687,-25.04285 2.257663,-8.82733 7.684501,-14.192039 16.528501,-16.338567 2.66232,-0.646177 6.64421,-0.927787 15.4994,-0.973149 z m 6.70627,7.392178 c -3.45092,0.0254 -6.95383,0.0771 -9.67649,0.14856 -10.7206,0.28096 -12.20559,0.46986 -15.0589,1.91574 -4.22225,2.13959 -6.76725,6.68627 -7.3903,13.20333 -0.72369,7.57 -0.4543,34.82894 0.38503,38.96077 1.22337,6.02223 5.28155,10.05627 11.40184,11.33413 3.71768,0.77623 18.8991,1.07139 32.36732,0.6295 8.01977,-0.26315 10.62062,-0.63366 13.37211,-1.90493 3.53783,-1.63458 6.19093,-5.04354 7.31319,-9.3963 0.83309,-3.23122 0.92925,-5.92063 0.8293,-23.22865 -0.0941,-16.29085 -0.12499,-17.25106 -0.63138,-19.47898 -1.22419,-5.3862 -3.96085,-8.91394 -8.13308,-10.48416 -3.53894,-1.3319 -5.64709,-1.56287 -15.41572,-1.69055 -2.51322,-0.0329 -5.912,-0.0338 -9.36292,-0.008 z m 21.77316,6.616 c 0.52628,-0.0411 1.0812,0.007 1.65388,0.16125 2.21623,0.59677 3.77738,2.89782 3.51933,5.18732 -0.34947,3.1004 -3.54607,5.14462 -6.41339,4.10133 -0.55849,-0.20322 -1.44102,-0.84384 -1.96087,-1.42353 -2.76906,-3.08785 -0.48293,-7.73848 3.20105,-8.02637 z m -21.29552,5.88639 c 3.56022,-0.005 4.29696,0.0669 5.96583,0.58811 11.4955,3.59126 17.57037,15.5085 13.7026,26.88008 -1.09276,3.21281 -2.52682,5.44936 -5.17273,8.06586 -2.66961,2.63993 -5.60685,4.35383 -8.94874,5.22163 -2.32077,0.60264 -6.59575,0.82863 -8.91161,0.47106 -2.38911,-0.36886 -5.68685,-1.6605 -7.85806,-3.07788 -4.46881,-2.91727 -7.59104,-7.34033 -8.88105,-12.58137 -0.58442,-2.37434 -0.58326,-7.74588 0.002,-9.93082 1.1071,-4.13254 2.57924,-6.72577 5.50464,-9.6953 2.51898,-2.55699 4.68576,-3.91814 8.12368,-5.10362 2.32802,-0.80276 2.55266,-0.83157 6.47356,-0.83775 z m 0.12693,7.14441 c -3.62311,-8.1e-4 -6.87026,1.36987 -9.51947,4.01906 -4.19417,4.19417 -5.10624,10.04408 -2.41876,15.51304 1.68151,3.42187 4.91318,6.04915 8.69064,7.06591 1.82636,0.4916 4.8838,0.48509 6.56524,-0.0141 5.95658,-1.76831 10.15027,-7.19821 10.13344,-13.12107 -0.0206,-7.26984 -6.20569,-13.46026 -13.45109,-13.46284 z" /></g></svg>
