<?xml version="1.0" encoding="UTF-8" standalone="no"?>
<!-- Created with Inkscape (http://www.inkscape.org/) -->

<svg
   width="599.03876"
   height="599.03876"
   viewBox="0 0 158.49566 158.49566"
   version="1.1"
   id="svg1"
   inkscape:version="1.4 (e7c3feb100, 2024-10-09)"
   xml:space="preserve"
   sodipodi:docname="telegram-links.svg"
   xmlns:inkscape="http://www.inkscape.org/namespaces/inkscape"
   xmlns:sodipodi="http://sodipodi.sourceforge.net/DTD/sodipodi-0.dtd"
   xmlns="http://www.w3.org/2000/svg"
   xmlns:svg="http://www.w3.org/2000/svg"><sodipodi:namedview
     id="namedview1"
     pagecolor="#585858"
     bordercolor="#000000"
     borderopacity="0.25"
     inkscape:showpageshadow="false"
     inkscape:pageopacity="0.0"
     inkscape:pagecheckerboard="0"
     inkscape:deskcolor="#d1d1d1"
     inkscape:document-units="mm"
     showborder="true"
     borderlayer="true"
     inkscape:zoom="0.59524028"
     inkscape:cx="400.67853"
     inkscape:cy="435.1184"
     inkscape:window-width="1920"
     inkscape:window-height="1043"
     inkscape:window-x="3840"
     inkscape:window-y="0"
     inkscape:window-maximized="1"
     inkscape:current-layer="layer1" /><defs
     id="defs1" /><g
     inkscape:label="Layer 1"
     inkscape:groupmode="layer"
     id="layer1"
     transform="translate(-56.218831,-56.218831)"><rect
       style="fill:#ffffff;stroke:#000000;stroke-width:10.329;stroke-dasharray:none;paint-order:stroke markers fill"
       id="rect3"
       width="148.16667"
       height="148.16667"
       x="61.383331"
       y="61.383331"
       ry="28.225647" /><path
       style="fill:#000000"
       id="path6" /><path
       style="fill:#000000"
       id="path5" /><path
       style="fill:#26a4e3;stroke:none;stroke-width:1.10154"
       d="m 132.3567,81.798349 c -13.54413,1.77833 -26.15465,5.86953 -35.822152,16.19768 -22.33574,23.862111 -19.27966,63.635851 8.425932,82.188191 5.27136,3.52981 11.03594,6.15397 17.1955,7.68673 6.26554,1.55914 12.82811,2.034 19.23563,1.26519 26.89889,-3.22744 47.14263,-25.97768 47.79337,-52.96051 0.70052,-29.04738 -26.60627,-58.345411 -56.82828,-54.377281 m 24.77316,32.362081 c 4.86846,-0.10146 2.823,7.17885 2.41053,10.06579 -1.4205,9.94224 -3.09299,19.83479 -4.81498,29.7278 -0.50334,2.89169 -0.89468,8.63562 -4.88177,8.68972 -2.59746,0.0352 -4.9931,-1.90442 -6.99478,-3.31995 -3.92203,-2.77357 -7.95542,-5.42087 -11.94941,-8.08995 -1.94567,-1.30026 -4.73408,-3.07971 -3.20752,-5.73071 3.03857,-5.27672 9.66306,-9.48147 13.99113,-13.70351 0.69608,-0.67903 4.70004,-3.89028 3.57407,-5.02727 -0.77237,-0.77992 -2.6526,0.82829 -3.28262,1.2436 -3.02173,1.99195 -6.02356,4.01481 -9.03492,6.02238 -4.4522,2.96814 -9.63419,7.86175 -14.8639,9.20179 -4.09731,1.04988 -11.28753,-1.14648 -14.85108,-3.24799 -1.96602,-1.15941 -1.39464,-2.80689 0.28313,-3.90083 2.93769,-1.91544 6.68136,-3.08065 9.90477,-4.45607 9.8107,-4.18619 19.556,-8.51737 29.43635,-12.5395 4.31746,-1.75757 9.52654,-4.83622 14.281,-4.9353 z"
       id="path8" /></g></svg>
