<?xml version="1.0" encoding="UTF-8" standalone="no"?>
<!-- Created with Inkscape (http://www.inkscape.org/) -->

<svg
   width="599.03876"
   height="599.03876"
   viewBox="0 0 158.49566 158.49566"
   version="1.1"
   id="svg1"
   inkscape:version="1.4 (e7c3feb100, 2024-10-09)"
   xml:space="preserve"
   sodipodi:docname="youtube-links.svg"
   xmlns:inkscape="http://www.inkscape.org/namespaces/inkscape"
   xmlns:sodipodi="http://sodipodi.sourceforge.net/DTD/sodipodi-0.dtd"
   xmlns="http://www.w3.org/2000/svg"
   xmlns:svg="http://www.w3.org/2000/svg"><sodipodi:namedview
     id="namedview1"
     pagecolor="#585858"
     bordercolor="#000000"
     borderopacity="0.25"
     inkscape:showpageshadow="false"
     inkscape:pageopacity="0.0"
     inkscape:pagecheckerboard="0"
     inkscape:deskcolor="#d1d1d1"
     inkscape:document-units="mm"
     showborder="true"
     borderlayer="true"
     inkscape:zoom="0.29762014"
     inkscape:cx="-159.59941"
     inkscape:cy="601.43779"
     inkscape:window-width="1920"
     inkscape:window-height="1043"
     inkscape:window-x="3840"
     inkscape:window-y="0"
     inkscape:window-maximized="1"
     inkscape:current-layer="layer1" /><defs
     id="defs1" /><g
     inkscape:label="Layer 1"
     inkscape:groupmode="layer"
     id="layer1"
     transform="translate(-56.218831,-56.218831)"><rect
       style="fill:#ffffff;stroke:#000000;stroke-width:10.329;stroke-dasharray:none;paint-order:stroke markers fill"
       id="rect3"
       width="148.16667"
       height="148.16667"
       x="61.383331"
       y="61.383331"
       ry="28.225647" /><path
       style="opacity:1;fill:#ff0000;stroke-width:0.363056;fill-opacity:1"
       d="m 129.98158,175.86068 c -0.022,-0.0196 -2.7849,-0.0856 -6.13974,-0.14662 -8.348,-0.15181 -10.90561,-0.24087 -19.59594,-0.68247 -2.3597,-0.1199 -4.733924,-0.31268 -7.780743,-0.63173 -3.725978,-0.39016 -5.73059,-0.75396 -7.315114,-1.32754 -0.781852,-0.28301 -1.20267,-0.48293 -2.434827,-1.15668 -1.403007,-0.76719 -3.338916,-2.55137 -4.435805,-4.08816 -1.799035,-2.52053 -2.50807,-4.77602 -3.291468,-10.47038 -0.661978,-4.81178 -1.28497,-15.33189 -1.294141,-21.85332 -0.0046,-3.29721 0.389017,-12.63969 0.659744,-15.65753 0.07583,-0.84532 0.182233,-2.07727 0.236444,-2.73766 0.249677,-3.04153 0.912393,-7.26333 1.462644,-9.31769 1.195419,-4.46308 4.601903,-8.264932 8.89836,-9.931144 1.966822,-0.762751 4.537381,-1.172245 10.588037,-1.686688 8.948249,-0.760803 32.076189,-1.338188 42.986189,-1.073142 2.53594,0.06161 6.6951,0.154167 9.24256,0.205689 2.54747,0.05153 5.59493,0.137884 6.77213,0.191911 6.90066,0.316708 10.7574,0.535431 12.61074,0.71518 3.23971,0.31421 5.38511,0.540935 5.53047,0.584462 0.0832,0.0249 0.58026,0.105486 1.10467,0.179081 0.52442,0.0736 1.38274,0.225116 1.90738,0.336716 5.03095,1.070161 9.00515,4.462785 10.69881,9.133115 0.73301,2.0213 1.60894,6.78513 1.94286,10.56645 0.0536,0.60757 0.16287,1.83952 0.24269,2.73766 0.30277,3.40688 0.66711,11.97147 0.66198,15.56148 -0.003,1.82922 -0.24453,9.23521 -0.37495,11.47899 -0.1277,2.19647 -0.21866,3.38124 -0.53468,6.96424 -0.12965,1.46998 -0.56234,4.85842 -0.72371,5.66746 -0.0737,0.36982 -0.20254,1.03983 -0.28619,1.48891 -0.24182,1.29826 -0.61608,2.76649 -0.93047,3.65022 -1.3638,3.83355 -4.45482,6.97837 -8.34341,8.48868 -0.83706,0.32511 -2.67159,0.78928 -3.4509,0.87312 -0.34342,0.0369 -0.77568,0.10518 -0.96059,0.15161 -0.39041,0.098 -4.2419,0.49969 -6.82016,0.71123 -4.00422,0.32853 -12.42037,0.6974 -18.73141,0.82096 -2.77368,0.0542 -6.73803,0.14162 -8.80963,0.19403 -3.60279,0.0911 -13.2082,0.13418 -13.29183,0.0596 z m -5.00443,-23.68048 c 0.52738,-0.31134 1.19009,-0.6942 1.47273,-0.85077 0.49486,-0.27418 2.31304,-1.31811 6.18443,-3.55091 1.00553,-0.57992 2.04295,-1.17673 2.3054,-1.32622 1.01431,-0.57779 1.44313,-0.82467 1.58185,-0.91074 0.27493,-0.17059 6.29387,-3.62457 6.67607,-3.83109 0.21132,-0.11417 0.55714,-0.31555 0.76846,-0.44748 0.21133,-0.13196 0.44908,-0.26903 0.52832,-0.30462 0.15204,-0.0682 7.14922,-4.09248 7.39651,-4.25386 0.0793,-0.0516 0.317,-0.18592 0.52833,-0.29822 0.21133,-0.11229 0.6366,-0.35595 0.94505,-0.54143 0.45888,-0.27595 0.53744,-0.35904 0.43226,-0.45711 -0.0707,-0.0659 -1.27405,-0.77764 -2.6741,-1.58162 -1.40006,-0.80398 -2.7833,-1.60385 -3.07388,-1.77748 -0.29058,-0.17365 -1.24155,-0.72512 -2.11329,-1.22551 -0.87173,-0.50038 -2.01723,-1.16014 -2.54554,-1.46613 -1.21234,-0.70215 -1.52847,-0.88279 -2.06526,-1.18011 -0.23775,-0.13168 -0.4755,-0.27234 -0.52832,-0.31257 -0.0528,-0.0402 -0.3122,-0.19317 -0.57635,-0.33983 -0.55299,-0.30704 -9.34075,-5.3771 -9.55783,-5.51436 -0.0793,-0.0501 -0.48989,-0.28678 -0.91255,-0.52594 -0.42266,-0.23916 -0.87653,-0.49966 -1.00862,-0.57889 -0.66815,-0.40079 -4.73949,-2.74009 -4.76888,-2.74009 -0.0187,0 -0.0341,7.78074 -0.0341,17.29054 0,9.50978 0.0181,17.29053 0.0402,17.29053 0.0221,0 0.47168,-0.25474 0.99905,-0.56609 z"
       id="path4" /></g></svg>
