<?xml version="1.0" encoding="UTF-8" standalone="no"?>
<!-- Created with Inkscape (http://www.inkscape.org/) -->

<svg
   width="599.03876"
   height="599.03876"
   viewBox="0 0 158.49566 158.49566"
   version="1.1"
   id="svg1"
   inkscape:version="1.4 (e7c3feb100, 2024-10-09)"
   xml:space="preserve"
   sodipodi:docname="github-links.svg"
   xmlns:inkscape="http://www.inkscape.org/namespaces/inkscape"
   xmlns:sodipodi="http://sodipodi.sourceforge.net/DTD/sodipodi-0.dtd"
   xmlns="http://www.w3.org/2000/svg"
   xmlns:svg="http://www.w3.org/2000/svg"><sodipodi:namedview
     id="namedview1"
     pagecolor="#585858"
     bordercolor="#000000"
     borderopacity="0.25"
     inkscape:showpageshadow="false"
     inkscape:pageopacity="0.0"
     inkscape:pagecheckerboard="0"
     inkscape:deskcolor="#d1d1d1"
     inkscape:document-units="mm"
     showborder="true"
     borderlayer="true"
     inkscape:zoom="0.84179687"
     inkscape:cx="263.12761"
     inkscape:cy="397.95824"
     inkscape:window-width="1920"
     inkscape:window-height="1043"
     inkscape:window-x="3840"
     inkscape:window-y="0"
     inkscape:window-maximized="1"
     inkscape:current-layer="layer1" /><defs
     id="defs1" /><g
     inkscape:label="Layer 1"
     inkscape:groupmode="layer"
     id="layer1"
     transform="translate(-56.218831,-56.218831)"><rect
       style="fill:#ffffff;stroke:#000000;stroke-width:10.329;stroke-dasharray:none;paint-order:stroke markers fill"
       id="rect3"
       width="148.16667"
       height="148.16667"
       x="61.383331"
       y="61.383331"
       ry="28.225647" /><path
       id="path3"
       style="fill:#000000;stroke-width:0.289217"
       d="m 135.4368,82.437813 c -11.70732,-0.0027 -23.05658,3.761955 -32.44531,10.7624 -12.058351,8.990977 -19.879907,22.586167 -21.536744,37.434637 -1.581726,14.17537 2.280582,28.09315 10.910202,39.31554 2.668084,3.46973 6.23719,7.06435 9.655972,9.72517 4.03943,3.14385 8.50893,5.71316 13.21408,7.596 1.46905,0.58786 2.76,1.04974 3.21392,1.14977 0.16836,0.0371 0.58436,0.0537 0.92439,0.0371 1.15536,-0.0566 1.90277,-0.503 2.34304,-1.39937 l 0.25258,-0.51414 -0.0197,-5.38941 c -0.0108,-2.96417 -0.0338,-5.40335 -0.0508,-5.42051 -0.0171,-0.0171 -0.47314,0.0395 -1.01331,0.12599 -2.49594,0.3997 -5.64071,0.53528 -7.41007,0.3194 -3.35354,-0.40919 -5.66031,-1.4077 -7.50887,-3.2501 -1.00387,-1.00052 -1.52148,-1.80362 -2.24813,-3.48877 -0.85516,-1.98306 -2.00031,-3.93414 -3.27879,-5.5861 -0.81536,-1.05356 -1.571175,-1.74963 -2.579328,-2.37517 -1.41242,-0.87636 -2.329284,-1.8445 -2.329284,-2.45961 0,-0.3001 0.265901,-0.5713 0.747877,-0.76283 0.394206,-0.15667 0.568972,-0.17436 1.739081,-0.17696 1.135496,-0.003 1.378697,0.0196 1.913049,0.17352 0.851175,0.24521 2.016105,0.82195 2.829525,1.40086 1.30188,0.92655 2.75172,2.53298 3.79068,4.20019 1.5683,2.51666 3.63785,4.27624 5.96766,5.07376 1.12933,0.38659 2.07057,0.53402 3.44349,0.53954 1.88259,0.007 3.74408,-0.35628 5.50869,-1.07684 l 0.72605,-0.29652 0.20207,-1.00151 c 0.48646,-2.41154 1.45333,-4.42446 2.77751,-5.78279 0.27695,-0.28409 0.46048,-0.51668 0.40801,-0.51682 -0.28944,-8.7e-4 -3.47641,-0.49719 -4.45561,-0.69408 -10.76702,-2.16497 -16.91931,-7.66162 -19.20969,-17.16244 -0.58908,-2.44352 -0.87173,-4.87514 -0.93082,-8.0076 -0.0469,-2.48648 0.0471,-3.69524 0.43597,-5.61077 0.69857,-3.4409 2.56292,-7.19022 4.77514,-9.60305 0.29009,-0.31639 0.29928,-0.34221 0.21926,-0.61218 -0.046,-0.15502 -0.19184,-0.64344 -0.32418,-1.08535 -0.71373,-2.38328 -0.85398,-5.46256 -0.37753,-8.28575 0.30452,-1.80438 1.12439,-4.56412 1.42014,-4.78038 0.22632,-0.1655 1.7703,-0.15251 2.81533,0.0238 3.12024,0.52629 6.87895,2.18626 11.08222,4.89396 l 0.9788,0.63042 1.16382,-0.29534 c 2.90119,-0.73599 5.96506,-1.21101 9.31356,-1.4442 1.45386,-0.10125 6.17678,-0.0366 7.6522,0.10477 2.73838,0.26244 5.52998,0.73597 7.90478,1.34093 l 1.14409,0.29158 1.15739,-0.74279 c 4.97152,-3.19044 9.33003,-4.91083 12.48249,-4.927 1.29995,-0.006 1.27196,-0.0198 1.55585,0.73487 0.86372,2.296 1.29786,4.50109 1.36753,6.94558 0.0651,2.28642 -0.17958,4.18018 -0.77957,6.03043 l -0.26199,0.80767 0.52101,0.61755 c 2.73636,3.24232 4.33202,6.89405 4.86736,11.13918 0.14831,1.17626 0.19944,3.67955 0.10851,5.31828 -0.6234,11.23408 -5.17213,18.34917 -13.99081,21.88468 -2.95297,1.18386 -5.78524,1.85251 -10.39952,2.45512 l -0.32985,0.0432 0.53281,0.56076 c 1.74381,1.83576 2.85337,4.72426 3.04339,7.92242 0.0262,0.44191 0.0523,4.52245 0.0578,9.06785 l 0.01,8.26437 0.21433,0.43627 c 0.44672,0.90969 1.36359,1.43852 2.49428,1.43852 0.64704,0 1.11154,-0.12226 2.62866,-0.69124 4.80826,-1.80332 9.523,-4.38359 13.57936,-7.4319 12.01297,-9.02757 19.78713,-22.58498 21.44498,-37.39756 0.24763,-2.21266 0.32953,-3.74448 0.32953,-6.20815 0,-2.43237 -0.0764,-3.85884 -0.32999,-6.13176 -1.77524,-15.9096 -10.63038,-30.33873 -24.06196,-39.208107 -8.92151,-5.891205 -19.25058,-8.986329 -29.99661,-8.988933 z"
       sodipodi:nodetypes="csssssssccccssssssssssssssscssssssssssssscccssccsssscccssscccssccsssscssc" /></g></svg>
