<?xml version="1.0" encoding="UTF-8" standalone="no"?>
<!-- Created with Inkscape (http://www.inkscape.org/) -->

<svg
   width="599.03876"
   height="599.03876"
   viewBox="0 0 158.49566 158.49566"
   version="1.1"
   id="svg1"
   inkscape:version="1.4 (e7c3feb100, 2024-10-09)"
   xml:space="preserve"
   sodipodi:docname="monobank-links.svg"
   xmlns:inkscape="http://www.inkscape.org/namespaces/inkscape"
   xmlns:sodipodi="http://sodipodi.sourceforge.net/DTD/sodipodi-0.dtd"
   xmlns:xlink="http://www.w3.org/1999/xlink"
   xmlns="http://www.w3.org/2000/svg"
   xmlns:svg="http://www.w3.org/2000/svg"><sodipodi:namedview
     id="namedview1"
     pagecolor="#585858"
     bordercolor="#000000"
     borderopacity="0.25"
     inkscape:showpageshadow="false"
     inkscape:pageopacity="0.0"
     inkscape:pagecheckerboard="0"
     inkscape:deskcolor="#d1d1d1"
     inkscape:document-units="mm"
     showborder="true"
     borderlayer="true"
     inkscape:zoom="0.35355339"
     inkscape:cx="140.00714"
     inkscape:cy="475.17575"
     inkscape:window-width="1920"
     inkscape:window-height="1003"
     inkscape:window-x="1920"
     inkscape:window-y="0"
     inkscape:window-maximized="1"
     inkscape:current-layer="layer1"
     showgrid="false"
     showguides="false" /><defs
     id="defs1"><linearGradient
       id="linearGradient20"
       inkscape:collect="always"><stop
         style="stop-color:#666666;stop-opacity:1"
         offset="0"
         id="stop20" /><stop
         style="stop-color:#b3b3b3;stop-opacity:1"
         offset="1"
         id="stop21" /></linearGradient><inkscape:path-effect
       effect="fillet_chamfer"
       id="path-effect20"
       is_visible="true"
       lpeversion="1"
       nodesatellites_param="F,0,0,1,0,0,0,1 @ F,0,0,1,0,4.4979163,0,1 @ F,0,0,1,0,4.4979163,0,1 @ F,0,0,1,0,4.4979163,0,1 @ F,0,0,1,0,4.4979163,0,1 @ F,0,0,1,0,0,0,1"
       radius="17"
       unit="px"
       method="auto"
       mode="F"
       chamfer_steps="1"
       flexible="false"
       use_knot_distance="true"
       apply_no_radius="true"
       apply_with_radius="true"
       only_selected="false"
       hide_knots="false" /><linearGradient
       id="linearGradient18"
       inkscape:collect="always"><stop
         style="stop-color:#ffffff;stop-opacity:0.518149"
         offset="0"
         id="stop18" /><stop
         style="stop-color:#ffffff;stop-opacity:0;"
         offset="1"
         id="stop19" /></linearGradient><linearGradient
       id="linearGradient16"
       inkscape:collect="always"><stop
         style="stop-color:#ffffff;stop-opacity:0.99607801;"
         offset="0"
         id="stop16" /><stop
         style="stop-color:#ffffff;stop-opacity:1;"
         offset="1"
         id="stop17" /></linearGradient><inkscape:path-effect
       effect="fillet_chamfer"
       id="path-effect16"
       is_visible="true"
       lpeversion="1"
       nodesatellites_param="F,0,0,1,0,0,0,1 @ F,0,0,1,0,4.4979163,0,1 @ F,0,0,1,0,4.4979163,0,1 @ F,0,0,1,0,4.4979163,0,1 @ F,0,0,1,0,4.4979163,0,1 @ F,0,0,1,0,0,0,1"
       radius="17"
       unit="px"
       method="auto"
       mode="F"
       chamfer_steps="1"
       flexible="false"
       use_knot_distance="true"
       apply_no_radius="true"
       apply_with_radius="true"
       only_selected="false"
       hide_knots="false" /><linearGradient
       id="linearGradient12"
       inkscape:collect="always"><stop
         style="stop-color:#ffffff;stop-opacity:0.11280148;"
         offset="0"
         id="stop12" /><stop
         style="stop-color:#ffffff;stop-opacity:0.94610721;"
         offset="0.1478277"
         id="stop14" /><stop
         style="stop-color:#ffffff;stop-opacity:0;"
         offset="1"
         id="stop13" /></linearGradient><inkscape:path-effect
       effect="fillet_chamfer"
       id="path-effect12"
       is_visible="true"
       lpeversion="1"
       nodesatellites_param="F,0,0,1,0,0,0,1 @ F,0,0,1,0,4.4979163,0,1 @ F,0,0,1,0,4.4979163,0,1 @ F,0,0,1,0,4.4979163,0,1 @ F,0,0,1,0,4.4979163,0,1 @ F,0,0,1,0,0,0,1"
       radius="17"
       unit="px"
       method="auto"
       mode="F"
       chamfer_steps="1"
       flexible="false"
       use_knot_distance="true"
       apply_no_radius="true"
       apply_with_radius="true"
       only_selected="false"
       hide_knots="false" /><linearGradient
       id="linearGradient4"
       inkscape:collect="always"><stop
         style="stop-color:#7140bf;stop-opacity:0.99607801;"
         offset="0"
         id="stop4" /><stop
         style="stop-color:#bc8cf2;stop-opacity:0.99607801;"
         offset="0.17198287"
         id="stop7" /><stop
         style="stop-color:#082c51;stop-opacity:0.99607843"
         offset="0.80000001"
         id="stop6" /><stop
         style="stop-color:#967eef;stop-opacity:0.99607843"
         offset="1"
         id="stop5" /></linearGradient><inkscape:path-effect
       effect="fillet_chamfer"
       id="path-effect4"
       is_visible="true"
       lpeversion="1"
       nodesatellites_param="F,0,0,1,0,2.6262923,0,1 @ F,0,0,1,0,2.6262923,0,1 @ F,0,0,1,0,2.6262923,0,1 @ F,0,0,1,0,2.6262923,0,1"
       radius="10"
       unit="px"
       method="auto"
       mode="F"
       chamfer_steps="1"
       flexible="false"
       use_knot_distance="true"
       apply_no_radius="true"
       apply_with_radius="true"
       only_selected="false"
       hide_knots="false" /><inkscape:path-effect
       effect="fillet_chamfer"
       id="path-effect2"
       is_visible="true"
       lpeversion="1"
       nodesatellites_param="F,0,0,1,0,2.6262923,0,1 @ F,0,0,1,0,2.6262923,0,1 @ F,0,0,1,0,2.6262923,0,1 @ F,0,0,1,0,2.6262923,0,1"
       radius="10"
       unit="px"
       method="auto"
       mode="F"
       chamfer_steps="1"
       flexible="false"
       use_knot_distance="true"
       apply_no_radius="true"
       apply_with_radius="true"
       only_selected="false"
       hide_knots="false" /><inkscape:path-effect
       effect="fillet_chamfer"
       id="path-effect1"
       is_visible="true"
       lpeversion="1"
       nodesatellites_param="F,0,0,1,0,0,0,1 @ F,0,0,1,0,4.4979163,0,1 @ F,0,0,1,0,4.4979163,0,1 @ F,0,0,1,0,4.4979163,0,1 @ F,0,0,1,0,4.4979163,0,1 @ F,0,0,1,0,4.4979163,0,1"
       radius="17"
       unit="px"
       method="auto"
       mode="F"
       chamfer_steps="1"
       flexible="false"
       use_knot_distance="true"
       apply_no_radius="true"
       apply_with_radius="true"
       only_selected="false"
       hide_knots="false" /><linearGradient
       inkscape:collect="always"
       xlink:href="#linearGradient4"
       id="linearGradient5"
       x1="281.453"
       y1="89.714462"
       x2="342.76895"
       y2="89.714462"
       gradientUnits="userSpaceOnUse"
       gradientTransform="matrix(0.90404781,0,0,1,-146.6966,-3.1315921)" /><linearGradient
       inkscape:collect="always"
       xlink:href="#linearGradient12"
       id="linearGradient13"
       x1="290.02496"
       y1="97.451157"
       x2="290.02496"
       y2="168.23242"
       gradientUnits="userSpaceOnUse"
       gradientTransform="translate(-176.64432)" /><filter
       inkscape:collect="always"
       style="color-interpolation-filters:sRGB"
       id="filter16"
       x="-0.10572337"
       y="-0.84578689"
       width="1.2114467"
       height="2.6915738"><feGaussianBlur
         inkscape:collect="always"
         stdDeviation="2.9086169"
         id="feGaussianBlur16" /></filter><linearGradient
       inkscape:collect="always"
       xlink:href="#linearGradient16"
       id="linearGradient17"
       x1="318.66254"
       y1="114.70593"
       x2="318.66254"
       y2="94.946747"
       gradientUnits="userSpaceOnUse"
       gradientTransform="translate(-176.64432)" /><linearGradient
       inkscape:collect="always"
       xlink:href="#linearGradient18"
       id="linearGradient19"
       x1="333.28314"
       y1="97.451157"
       x2="333.28314"
       y2="150.51117"
       gradientUnits="userSpaceOnUse"
       gradientTransform="translate(-175.03301)" /><linearGradient
       inkscape:collect="always"
       xlink:href="#linearGradient20"
       id="linearGradient21"
       x1="310.44629"
       y1="124.36589"
       x2="310.44629"
       y2="162.87405"
       gradientUnits="userSpaceOnUse"
       gradientTransform="translate(-176.64432)" /><filter
       inkscape:collect="always"
       style="color-interpolation-filters:sRGB"
       id="filter22"
       x="-0.035549952"
       y="-0.080493062"
       width="1.0710999"
       height="1.1609861"><feGaussianBlur
         inkscape:collect="always"
         stdDeviation="0.95223509"
         id="feGaussianBlur22" /></filter></defs><g
     inkscape:label="Layer 1"
     inkscape:groupmode="layer"
     id="layer1"
     transform="translate(-56.218831,-56.218831)"><rect
       style="fill:#ffffff;stroke:#000000;stroke-width:10.329;stroke-dasharray:none;paint-order:stroke markers fill"
       id="rect3"
       width="148.16667"
       height="148.16667"
       x="61.383331"
       y="61.383331"
       ry="28.225647" /><g
       id="g22"><ellipse
         style="opacity:0.529094;fill:#000000;fill-opacity:0.996078;stroke:none;stroke-width:1.052;stroke-linecap:round;stroke-linejoin:round;stroke-dasharray:none;paint-order:stroke markers fill;filter:url(#filter16)"
         id="path16"
         cx="135.46667"
         cy="182.52983"
         rx="33.013893"
         ry="4.1267371" /><path
         style="opacity:0.623621;fill:#bebebe;stroke:none;stroke-width:2.665;stroke-linecap:round;stroke-linejoin:round;stroke-dasharray:none;paint-order:stroke markers fill;fill-opacity:1"
         d="m 287.96917,96.279247 -5.45295,7.932383 a 14.483083,14.483083 107.25288 0 0 -2.54802,8.20451 v 65.98681 a 4.4979163,4.4979163 45 0 0 4.49792,4.49792 h 55.28973 a 4.4979163,4.4979163 135 0 0 4.49792,-4.49792 v -65.56877 a 14.522177,14.522177 72.790814 0 0 -2.54236,-8.2084 l -5.68086,-8.290973"
         id="path1"
         sodipodi:nodetypes="cccccc"
         inkscape:path-effect="#path-effect1"
         inkscape:original-d="m 287.96917,96.279247 -8.00097,11.638973 v 74.98265 h 64.28557 v -74.56461 l -8.22322,-12.001453"
         transform="translate(-176.64432)" /><path
         id="path14"
         style="opacity:0.429592;fill:url(#linearGradient17);fill-opacity:1;stroke:none;stroke-width:1.052;stroke-linecap:round;stroke-linejoin:round;stroke-dasharray:none;paint-order:stroke markers fill;filter:url(#filter22)"
         d="m 111.32471,96.279435 -5.4529,7.932335 c -1.65957,2.41407 -2.54805,5.27466 -2.54817,8.20415 v 9.62628 l 0.18656,0.18449 c 0,0 10.12966,-11.46736 30.89268,-10.6203 27.51549,1.12253 32.55977,13.06511 32.55977,13.06511 0,0 0.44169,-0.31776 0.64699,-0.46354 v -11.37398 c -6e-5,-2.92993 -0.88636,-5.79131 -2.54248,-8.20828 l -5.68079,-8.290971 z"
         sodipodi:nodetypes="cccccscccccc" /><path
         id="path10"
         style="fill:url(#linearGradient13);fill-opacity:1;stroke:none;stroke-width:1.052;stroke-linecap:round;stroke-linejoin:round;stroke-dasharray:none;paint-order:stroke markers fill"
         d="m 111.32471,96.279435 -5.4529,7.932335 a 14.483083,14.483083 0 0 0 -2.54817,8.20415 v 65.98718 a 4.4979163,4.4979163 0 0 0 2.63292,4.05919 c 7.29385,-1.64774 15.47502,-3.66334 15.47502,-3.66334 0,0 -2.5146,-62.07608 -1.10019,-68.36224 1.41438,-6.28616 8.32921,-12.729455 8.32921,-12.729455 l -2.8851,-1.411284 z" /><path
         style="opacity:0.623621;fill:url(#linearGradient19);fill-opacity:1;stroke:none;stroke-width:1.052;stroke-linecap:round;stroke-linejoin:round;stroke-dasharray:none;paint-order:stroke markers fill"
         d="m 147.06324,97.628884 c 0,0 11.13259,8.875256 11.13259,17.287886 v 51.6241 l 6.20757,-0.23573 v -44.55313 c 0,0 0.48292,-10.42414 -2.43588,-15.47966 -2.91881,-5.05552 -8.40772,-10.922197 -8.40772,-10.922197 z"
         id="path17"
         sodipodi:nodetypes="cscccscc" /><path
         style="opacity:0.980833;fill:none;stroke:#000000;stroke-width:2.665;stroke-linecap:round;stroke-linejoin:round;stroke-dasharray:none;paint-order:stroke markers fill"
         d="m 287.96917,96.279247 -5.45295,7.932383 a 14.483083,14.483083 107.25288 0 0 -2.54802,8.20451 v 65.98681 a 4.4979163,4.4979163 45 0 0 4.49792,4.49792 h 55.28973 a 4.4979163,4.4979163 135 0 0 4.49792,-4.49792 v -65.56877 a 14.522177,14.522177 72.790814 0 0 -2.54236,-8.2084 l -5.68086,-8.290973"
         id="path19"
         sodipodi:nodetypes="cccccc"
         inkscape:path-effect="#path-effect20"
         inkscape:original-d="m 287.96917,96.279247 -8.00097,11.638973 v 74.98265 h 64.28557 v -74.56461 l -8.22322,-12.001453"
         transform="translate(-176.64432)" /><path
         id="path2"
         style="fill:url(#linearGradient5);fill-opacity:1;stroke:#000000;stroke-width:2.352;stroke-linecap:round;stroke-linejoin:round;stroke-dasharray:none;paint-order:stroke markers fill"
         d="m 114.14985,80.825081 c -1.31114,1.72e-4 -2.37396,1.175894 -2.37401,2.626196 v 0.505396 h -0.24185 c -1.47209,1.09e-4 -2.66541,1.175849 -2.66547,2.626196 v 7.005257 c 6e-5,1.450347 1.19338,2.626088 2.66547,2.626197 h 47.8653 c 1.47209,-1.09e-4 2.66541,-1.17585 2.66547,-2.626197 v -7.005257 c -6e-5,-1.450347 -1.19338,-2.626087 -2.66547,-2.626196 h -0.24184 v -0.505396 c -5e-5,-1.450306 -1.06287,-2.626029 -2.37402,-2.626196 z"
         sodipodi:nodetypes="cscsccccccscscc" /><path
         id="path21"
         style="opacity:0.200738;fill:#ffffff;fill-opacity:0.996078;stroke:none;stroke-width:1.84294;stroke-linecap:round;stroke-linejoin:round;stroke-dasharray:none;paint-order:stroke markers fill"
         d="m 111.40635,83.951505 c -0.67053,0.06987 -1.35654,0.308572 -1.74407,0.775663 0.96499,1.931909 3.22877,6.511748 7.98762,6.511748 5.76047,0 9.66252,-5.807899 10.56318,-7.287411 z"
         sodipodi:nodetypes="ccscc" /><path
         style="fill:#ffffff;fill-opacity:0.996078;stroke:none;stroke-width:0.770122;stroke-linecap:round;stroke-linejoin:round;stroke-dasharray:none;paint-order:stroke markers fill"
         d="m 114.05781,80.824965 c 0,0 0.91076,2.616339 3.84484,2.616339 2.93405,0 4.71455,-2.5959 4.71455,-2.5959 z"
         id="path9"
         sodipodi:nodetypes="cscc" /><path
         style="fill:#aa5fec;fill-opacity:0.996078;stroke:#000000;stroke-width:1.052;stroke-linecap:round;stroke-linejoin:round;stroke-dasharray:none;paint-order:stroke markers fill"
         d="m 111.19938,83.424768 h 47.95806"
         id="path7"
         sodipodi:nodetypes="cc" /><path
         style="fill:#ffffff;fill-opacity:0.996078;stroke:none;stroke-width:1.24783;stroke-linecap:round;stroke-linejoin:round;stroke-dasharray:none;paint-order:stroke markers fill"
         d="m 111.67335,83.950768 c 0,0 1.46741,4.26318 6.19478,4.26318 4.72734,0 7.59607,-4.229876 7.59607,-4.229876 z"
         id="path8"
         sodipodi:nodetypes="cscc" /><path
         id="text8"
         d="m 134.37141,116.31219 c -5.8656,0 -9.75631,2.54489 -13.00718,6.14902 l 5.02071,5.57957 c 2.47339,-2.47339 4.66094,-3.67489 7.41702,-3.67489 3.10952,0 4.80859,1.69759 4.80859,4.31158 0,1.60844 -0.91379,2.89834 -2.30326,4.09929 l -18.04868,0.13001 v 5.16372 h 10.36756 c -1.36513,1.02338 -2.65578,2.17399 -3.72672,3.53522 l -6.64084,0.22102 v 5.00696 h 4.17711 c -0.18573,0.87851 -0.28974,1.81089 -0.28974,2.8261 0,8.0563 5.36858,13.21426 15.40367,13.21426 4.31083,0 10.17625,-1.83503 14.06307,-5.57975 l -4.38402,-6.7131 c -3.39221,2.89742 -6.49894,4.31158 -9.67905,4.31158 -3.74547,0 -5.4399,-1.9799 -5.4399,-4.73616 0,-1.24997 0.4829,-2.3287 1.27412,-3.32293 h 19.29086 v -5.22761 h -12.6086 c 1.54157,-1.05867 3.08928,-2.19758 4.44085,-3.53522 h 8.16775 v -5.30023 h -4.73097 c 0.39748,-1.18868 0.6315,-2.49679 0.6315,-3.95943 0,-7.63228 -5.51048,-12.50514 -14.20274,-12.50514 z"
         sodipodi:nodetypes="sccssccccccccssccssccccccccss"
         style="fill:url(#linearGradient21);fill-opacity:1;stroke:none;stroke-width:2.9485;stroke-dasharray:none" /></g></g></svg>
