<?xml version="1.0" encoding="UTF-8" standalone="no"?>
<svg
   width="24"
   height="24"
   viewBox="0 0 24 24"
   fill="none"
   stroke="currentColor"
   stroke-width="2"
   stroke-linecap="round"
   stroke-linejoin="round"
   class="icon icon-tabler icons-tabler-outline icon-tabler-tag-starred"
   version="1.1"
   id="svg4"
   sodipodi:docname="buymeacoffee.svg"
   inkscape:version="1.4 (e7c3feb100, 2024-10-09)"
   xmlns:inkscape="http://www.inkscape.org/namespaces/inkscape"
   xmlns:sodipodi="http://sodipodi.sourceforge.net/DTD/sodipodi-0.dtd"
   xmlns="http://www.w3.org/2000/svg"
   xmlns:svg="http://www.w3.org/2000/svg">
  <defs
     id="defs4">
    <inkscape:path-effect
       effect="fillet_chamfer"
       id="path-effect5"
       is_visible="true"
       lpeversion="1"
       nodesatellites_param="F,0,0,1,0,1.0019701,0,1 @ F,0,0,1,0,1.0534263,0,1 @ F,0,1,1,0,1.0019701,0,1 @ F,0,0,1,0,1.0461016,0,1 @ F,0,0,1,0,0.82864412,0,1 @ F,0,0,1,0,0,0,1"
       radius="0"
       unit="px"
       method="auto"
       mode="F"
       chamfer_steps="1"
       flexible="false"
       use_knot_distance="true"
       apply_no_radius="true"
       apply_with_radius="true"
       only_selected="false"
       hide_knots="false" />
    <inkscape:path-effect
       effect="fillet_chamfer"
       id="path-effect4"
       is_visible="true"
       lpeversion="1"
       nodesatellites_param="F,0,0,1,0,0,0,1 @ F,0,0,1,0,1.8294342,0,1 @ F,0,0,1,0,1.9723729,0,1 @ F,0,0,1,0,0,0,1"
       radius="2"
       unit="px"
       method="auto"
       mode="F"
       chamfer_steps="1"
       flexible="false"
       use_knot_distance="true"
       apply_no_radius="true"
       apply_with_radius="true"
       only_selected="false"
       hide_knots="false" />
  </defs>
  <sodipodi:namedview
     id="namedview4"
     pagecolor="#ffffff"
     bordercolor="#000000"
     borderopacity="0.25"
     inkscape:showpageshadow="2"
     inkscape:pageopacity="0.0"
     inkscape:pagecheckerboard="0"
     inkscape:deskcolor="#d1d1d1"
     inkscape:zoom="24.218407"
     inkscape:cx="11.39629"
     inkscape:cy="13.749872"
     inkscape:window-width="1920"
     inkscape:window-height="1043"
     inkscape:window-x="3840"
     inkscape:window-y="0"
     inkscape:window-maximized="1"
     inkscape:current-layer="svg4"
     showgrid="false" />
  <path
     stroke="none"
     d="M0 0h24v24H0z"
     fill="none"
     id="path1" />
  <path
     style="fill:currentColor;stroke:none;stroke-width:0.0676237"
     d="m 12.373113,12.770592 c -0.546503,0.233978 -1.166749,0.499266 -1.970593,0.499266 -0.336258,-6.29e-4 -0.6708925,-0.04683 -0.9948106,-0.137176 l 0.5559346,5.707849 c 0.019682,0.238576 0.12835,0.460992 0.304477,0.623152 0.176091,0.162164 0.406756,0.252169 0.646145,0.252102 0,0 0.788253,0.04091 1.051277,0.04091 0.28314,0 1.131953,-0.04091 1.131953,-0.04091 0.239388,0 0.469953,-0.09004 0.64601,-0.252168 0.17606,-0.162161 0.284729,-0.384576 0.304375,-0.623121 l 0.59546,-6.3074 c -0.2661,-0.09089 -0.534666,-0.15124 -0.837417,-0.15124 -0.523579,-2.01e-4 -0.945483,0.180151 -1.432811,0.388736 z"
     id="path102-9" />
  <path
     style="fill:none;stroke:currentColor;stroke-width:1;stroke-linecap:round;stroke-linejoin:round;stroke-dasharray:none;paint-order:stroke markers fill"
     d="m 7.2323243,10.476743 0.9480087,9.345499 a 2.0244007,2.0244007 42.103861 0 0 2.014065,1.820094 h 3.439069 a 2.1867241,2.1867241 137.9503 0 0 2.175138,-1.961923 L 16.934307,8.7883212"
     id="path4"
     sodipodi:nodetypes="cccc"
     inkscape:path-effect="#path-effect4"
     inkscape:original-d="M 7.2323243,10.476743 8.3649635,21.642336 H 15.60584 L 16.934307,8.7883212" />
  <path
     style="fill:none;stroke:currentColor;stroke-width:1;stroke-linecap:round;stroke-linejoin:round;stroke-dasharray:none;paint-order:stroke markers fill"
     d="M 5.6000425,6.6972946 5.4557059,7.3380235 c -0.1278559,0.5675684 0.2257246,1.1453196 0.797491,1.2521866 0.9798015,0.1831316 2.6215634,0.4208714 4.7613621,0.4800161 0.552731,0.015278 1.449808,0.01542 2.002923,-7.954e-4 2.092246,-0.061335 3.65941,-0.3041944 4.599094,-0.4949784 0.565511,-0.1148157 0.914189,-0.7011798 0.788665,-1.2651248 L 18.267225,6.6892619 c -0.09943,-0.4467155 -0.548053,-0.7618382 -1.002646,-0.709082 -1.300558,0.1509321 -3.86209,0.4199107 -5.599898,0.4199107 -1.607204,0 -3.663056,-0.3011645 -4.8589966,-0.5027241 C 6.260365,5.8054603 5.7216531,6.1574498 5.6000425,6.6972946 Z"
     id="path5"
     sodipodi:nodetypes="ccsccsc"
     inkscape:path-effect="#path-effect5"
     inkscape:original-d="M 5.8202379,5.7198192 5.2242024,8.3656971 c 0,0 2.6004244,0.7183024 6.7914516,0.7183024 4.191027,0 6.616869,-0.7535591 6.616869,-0.7535591 L 18.087189,5.880412 c 0,0 -4.00699,0.5196786 -6.422508,0.5196786 -2.4155178,0 -5.8444431,-0.6802714 -5.8444431,-0.6802714 z" />
  <path
     style="fill:none;stroke:currentColor;stroke-width:1;stroke-linecap:round;stroke-linejoin:round;stroke-dasharray:none;paint-order:stroke markers fill"
     d="M 16.96024,5.7084679 16.681602,4.3823213 C 16.514239,3.5857762 16.743756,2.9548864 15.376019,2.7199891 14.546589,2.5775416 13.198203,2.3226135 11.860813,2.3226135 c -2.4877771,0 -4.6594305,0.4149857 -4.6891168,0.9688724 -0.051631,0.9633377 4.9199878,0.961156 7.6310938,0.755023"
     id="path6"
     sodipodi:nodetypes="cssssc" />
</svg>
