<?xml version="1.0" encoding="UTF-8" standalone="no"?>
<svg
   width="24"
   height="24"
   viewBox="0 0 24 24"
   fill="none"
   stroke="currentColor"
   stroke-width="2"
   stroke-linecap="round"
   stroke-linejoin="round"
   class="icon icon-tabler icons-tabler-outline icon-tabler-tip-jar-euro"
   version="1.1"
   id="svg5"
   sodipodi:docname="mono-jar.svg"
   xml:space="preserve"
   inkscape:version="1.4 (e7c3feb100, 2024-10-09)"
   xmlns:inkscape="http://www.inkscape.org/namespaces/inkscape"
   xmlns:sodipodi="http://sodipodi.sourceforge.net/DTD/sodipodi-0.dtd"
   xmlns="http://www.w3.org/2000/svg"
   xmlns:svg="http://www.w3.org/2000/svg"><defs
     id="defs5" /><sodipodi:namedview
     id="namedview5"
     pagecolor="#ffffff"
     bordercolor="#000000"
     borderopacity="0.25"
     inkscape:showpageshadow="2"
     inkscape:pageopacity="0.0"
     inkscape:pagecheckerboard="0"
     inkscape:deskcolor="#d1d1d1"
     inkscape:zoom="24.218407"
     inkscape:cx="14.307299"
     inkscape:cy="15.153763"
     inkscape:window-width="1920"
     inkscape:window-height="1043"
     inkscape:window-x="3840"
     inkscape:window-y="0"
     inkscape:window-maximized="1"
     inkscape:current-layer="svg5" /><path
     stroke="none"
     d="M0 0h24v24H0z"
     fill="none"
     id="path1" /><path
     d="M17 4v1.882c0 .685 .387 1.312 1 1.618s1 .933 1 1.618v8.882a3 3 0 0 1 -3 3h-8a3 3 0 0 1 -3 -3v-8.882c0 -.685 .387 -1.312 1 -1.618s1 -.933 1 -1.618v-1.882"
     id="path2" /><path
     d="M6 4h12z"
     id="path3" /><path
     id="text8"
     d="m 11.777233,8.030245 c -1.193598,0 -1.9853615,0.517872 -2.6468733,1.2512872 L 10.152034,10.41696 c 0.503324,-0.5033244 0.948491,-0.7478238 1.509338,-0.7478238 0.632751,0 0.978491,0.3452898 0.978491,0.8773758 0,0.327489 -0.186058,0.5898 -0.468706,0.834192 l -3.6727608,0.02775 v 1.050798 h 2.1097048 c -0.277873,0.208312 -0.540407,0.442395 -0.7583566,0.719386 l -1.3513482,0.04492 v 1.018885 h 0.849991 c -0.037222,0.178697 -0.058983,0.368641 -0.058983,0.575087 0,1.6394 1.0924798,2.689004 3.1345378,2.689004 0.877223,0 2.070803,-0.37325 2.86174,-1.135427 l -0.892121,-1.366094 c -0.690273,0.589608 -1.322488,0.877375 -1.969619,0.877375 -0.762177,0 -1.106989,-0.402897 -1.106989,-0.963745 0,-0.254476 0.0981,-0.473905 0.259105,-0.6762 h 3.925546 v -1.063805 h -2.565771 c 0.313779,-0.215453 0.628682,-0.447193 0.903708,-0.719385 h 1.662063 v -1.078551 h -0.962691 c 0.08092,-0.241787 0.128499,-0.508111 0.128499,-0.805753 0,-1.5531151 -1.121353,-2.5447056 -2.890179,-2.5447056 z"
     sodipodi:nodetypes="sccssccccccccssccssccccccccss"
     style="stroke-width:0.59999993;stroke-dasharray:none;fill:currentColor;stroke:none" /></svg>
